<svg xmlns="http://www.w3.org/2000/svg" viewBox="0 0 360 100" role="img" aria-labelledby="title desc">
  <title id="title">BAYLOS</title><desc id="desc">Baylos wholesale portal logo</desc>
  <defs><linearGradient id="g" x1="0" x2="1" y1="0" y2="1"><stop offset="0" stop-color="#D4AF37"/><stop offset="1" stop-color="#C5A880"/></linearGradient></defs>
  <rect x="3" y="3" width="94" height="94" rx="24" fill="#27272A" stroke="url(#g)" stroke-width="3"/>
  <path d="M30 25h27c13 0 22 7 22 18 0 7-4 12-10 15 8 3 12 8 12 16 0 12-10 21-25 21H30V25Zm17 14v13h9c4 0 7-2 7-6s-3-7-7-7h-9Zm0 27v15h11c5 0 8-3 8-8s-3-7-8-7H47Z" fill="url(#g)"/>
  <text x="120" y="65" fill="#FAF9F6" font-family="Georgia,serif" font-size="48" font-weight="700" letter-spacing="5">BAYLOS</text>
  <text x="123" y="87" fill="#A1A1AA" font-family="Arial,sans-serif" font-size="11" letter-spacing="4">WHOLESALE PORTAL</text>
</svg>
